HIERARCHY
ROOT hip
{
  OFFSET 0 0 0
  CHANNELS 6 Xposition Yposition Zposition Zrotation Yrotation Xrotation
  JOINT abdomen
  {
    OFFSET 0 20.6881 -0.73152
    CHANNELS 3 Zrotation Xrotation Yrotation
    JOINT chest
    {
      OFFSET 0 11.7043 -0.48768
      CHANNELS 3 Zrotation Xrotation Yrotation
      JOINT neck
      {
        OFFSET 0 22.1894 -2.19456
        CHANNELS 3 Zrotation Xrotation Yrotation
        JOINT head
        {
          OFFSET -0.24384 7.07133 1.2192
          CHANNELS 3 Zrotation Xrotation Yrotation
          JOINT leftEye
          {
            OFFSET 4.14528 8.04674 8.04672
            CHANNELS 3 Zrotation Xrotation Yrotation
            End Site
            {
              OFFSET 1 0 0
            }
          }
          JOINT rightEye
          {
            OFFSET -3.6576 8.04674 8.04672
            CHANNELS 3 Zrotation Xrotation Yrotation
            End Site
            {
              OFFSET 1 0 0
            }
          }
        }
      }
      JOINT rCollar
      {
        OFFSET -2.68224 19.2634 -4.8768
        CHANNELS 3 Zrotation Xrotation Yrotation
        JOINT rShldr
        {
          OFFSET -8.77824 -1.95073 1.46304
          CHANNELS 3 Zrotation Xrotation Yrotation
          JOINT rForeArm
          {
            OFFSET -28.1742 -1.7115 0.48768
            CHANNELS 3 Zrotation Xrotation Yrotation
            JOINT rHand
            {
              OFFSET -22.5879 0.773209 7.07136
              CHANNELS 3 Zrotation Xrotation Yrotation
              JOINT rThumb1
              {
                OFFSET -1.2192 -0.487915 3.41376
                CHANNELS 3 Zrotation Xrotation Yrotation
                JOINT rThumb2
                {
                  OFFSET -3.37035 -0.52449 3.41376
                  CHANNELS 3 Zrotation Xrotation Yrotation
                  End Site
                  {
                    OFFSET -1.78271 -1.18214 1.43049
                  }
                }
              }
              JOINT rIndex1
              {
                OFFSET -7.75947 0.938293 5.60832
                CHANNELS 3 Zrotation Xrotation Yrotation
                JOINT rIndex2
                {
                  OFFSET -2.54057 -0.884171 1.56538
                  CHANNELS 3 Zrotation Xrotation Yrotation
                  End Site
                  {
                    OFFSET -1.62519 -0.234802 1.16502
                  }
                }
              }
              JOINT rMid1
              {
                OFFSET -8.24714 1.18213 3.41376
                CHANNELS 3 Zrotation Xrotation Yrotation
                JOINT rMid2
                {
                  OFFSET -3.10165 -0.590103 1.0647
                  CHANNELS 3 Zrotation Xrotation Yrotation
                  End Site
                  {
                    OFFSET -2.48547 -0.328903 0.83742
                  }
                }
              }
              JOINT rRing1
              {
                OFFSET -8.82822 0.546677 1.51678
                CHANNELS 3 Zrotation Xrotation Yrotation
                JOINT rRing2
                {
                  OFFSET -2.60934 -0.819778 -0.0198488
                  CHANNELS 3 Zrotation Xrotation Yrotation
                  End Site
                  {
                    OFFSET -2.33842 -0.294052 0.168128
                  }
                }
              }
              JOINT rPinky1
              {
                OFFSET -8.27202 -0.0477905 -0.4584
                CHANNELS 3 Zrotation Xrotation Yrotation
                JOINT rPinky2
                {
                  OFFSET -1.82734 -0.647385 -0.700984
                  CHANNELS 3 Zrotation Xrotation Yrotation
                  End Site
                  {
                    OFFSET -1.69225 -0.51767 -0.607171
                  }
                }
              }
            }
          }
        }
      }
      JOINT lCollar
      {
        OFFSET 2.68224 19.2634 -4.8768
        CHANNELS 3 Zrotation Xrotation Yrotation
        JOINT lShldr
        {
          OFFSET 8.77824 -1.95073 1.46304
          CHANNELS 3 Zrotation Xrotation Yrotation
          JOINT lForeArm
          {
            OFFSET 28.1742 -1.7115 0.48768
            CHANNELS 3 Zrotation Xrotation Yrotation
            JOINT lHand
            {
              OFFSET 22.5879 0.773209 7.07136
              CHANNELS 3 Zrotation Xrotation Yrotation
              JOINT lThumb1
              {
                OFFSET 1.2192 -0.487915 3.41376
                CHANNELS 3 Zrotation Xrotation Yrotation
                JOINT lThumb2
                {
                  OFFSET 3.37035 -0.52449 3.41376
                  CHANNELS 3 Zrotation Xrotation Yrotation
                  End Site
                  {
                    OFFSET 1.78271 -1.18214 1.43049
                  }
                }
              }
              JOINT lIndex1
              {
                OFFSET 7.75947 0.938293 5.60832
                CHANNELS 3 Zrotation Xrotation Yrotation
                JOINT lIndex2
                {
                  OFFSET 2.54057 -0.884171 1.56538
                  CHANNELS 3 Zrotation Xrotation Yrotation
                  End Site
                  {
                    OFFSET 1.62519 -0.234802 1.16502
                  }
                }
              }
              JOINT lMid1
              {
                OFFSET 8.24714 1.18213 3.41376
                CHANNELS 3 Zrotation Xrotation Yrotation
                JOINT lMid2
                {
                  OFFSET 3.10165 -0.590103 1.0647
                  CHANNELS 3 Zrotation Xrotation Yrotation
                  End Site
                  {
                    OFFSET 2.48547 -0.328903 0.83742
                  }
                }
              }
              JOINT lRing1
              {
                OFFSET 8.82822 0.546677 1.51678
                CHANNELS 3 Zrotation Xrotation Yrotation
                JOINT lRing2
                {
                  OFFSET 2.60934 -0.819778 -0.0198488
                  CHANNELS 3 Zrotation Xrotation Yrotation
                  End Site
                  {
                    OFFSET 2.33842 -0.294052 0.168128
                  }
                }
              }
              JOINT lPinky1
              {
                OFFSET 8.27202 -0.0477905 -0.4584
                CHANNELS 3 Zrotation Xrotation Yrotation
                JOINT lPinky2
                {
                  OFFSET 1.82734 -0.647385 -0.700984
                  CHANNELS 3 Zrotation Xrotation Yrotation
                  End Site
                  {
                    OFFSET 1.69225 -0.51767 -0.607171
                  }
                }
              }
            }
          }
        }
      }
    }
  }
  JOINT rButtock
  {
    OFFSET -8.77824 4.35084 1.2192
    CHANNELS 3 Zrotation Xrotation Yrotation
    JOINT rThigh
    {
      OFFSET 0 -1.70687 -2.19456
      CHANNELS 3 Zrotation Xrotation Yrotation
      JOINT rShin
      {
        OFFSET 0 -36.8199 0.73152
        CHANNELS 3 Zrotation Xrotation Yrotation
        JOINT rFoot
        {
          OFFSET 0.73152 -45.1104 -5.12064
          CHANNELS 3 Zrotation Xrotation Yrotation
          End Site
          {
            OFFSET -1.1221 -3.69964 12.103
          }
        }
      }
    }
  }
  JOINT lButtock
  {
    OFFSET 8.77824 4.35084 1.2192
    CHANNELS 3 Zrotation Xrotation Yrotation
    JOINT lThigh
    {
      OFFSET 0 -1.70687 -2.19456
      CHANNELS 3 Zrotation Xrotation Yrotation
      JOINT lShin
      {
        OFFSET 0 -36.8199 0.73152
        CHANNELS 3 Zrotation Xrotation Yrotation
        JOINT lFoot
        {
          OFFSET -0.73152 -45.1104 -5.12064
          CHANNELS 3 Zrotation Xrotation Yrotation
          End Site
          {
            OFFSET 1.1221 -3.69964 12.103
          }
        }
      }
    }
  }
}
MOTION
Frames:	5
Frame Time:	0.00833333
22.7745 84.3669 -141.672 -540.53 -59.6077 538.294 3.00984 3.66039 1.49942 -1.65134 0.991577 0.239248 2.07291 24.8656 1.78868 -3.5212 -57.2878 1.54026 -0.0 0.0 0.0 -0.0 0.0 0.0 -1.19698e-13 -1.28276e-13 1.10838e-12 11.6318 16.862 75.9951 -17.6442 -10.3093 33.2263 -0.0363374 5.45351 0.768764 -3.09129e-09 -3.13521e-09 -6.11979e-09 -5.37136e-09 -5.44489e-09 -1.05746e-08 -3.09129e-09 -3.1352e-09 -6.11981e-09 7.73091 5.47488 0.417314 -3.09129e-09 -3.1352e-09 -6.11979e-09 2.90554 0.965183 0.102902 -3.09129e-09 -3.1352e-09 -6.11979e-09 10.2786 0.731801 0.0259123 -3.0913e-09 -3.1352e-09 -6.11978e-09 2.22167 -0.733487 -0.20892 -1.19741e-13 -1.28269e-13 1.10814e-12 -57.8306 -8.21949 -18.7307 12.7057 -5.95566 -22.9852 0.39363 -17.5581 2.54872 5.7344e-10 7.36065e-09 6.51947e-09 9.02673e-10 1.27861e-08 1.12821e-08 5.73436e-10 7.36065e-09 6.51947e-09 -7.73091 5.47488 -0.417314 5.73441e-10 7.36065e-09 6.51947e-09 -2.90554 0.965183 -0.102902 5.73436e-10 7.36065e-09 6.51946e-09 -10.2786 0.731801 -0.0259123 5.73445e-10 7.36065e-09 6.51945e-09 -2.22167 -0.733487 0.20892 -2.03217e-16 0.0 -3.88251e-19 1.02235 -16.9963 18.1964 -0.27942 35.5671 0.651355 1.18821 -14.6995 5.27762 2.03217e-16 0.0 3.88251e-19 1.65034 -10.2383 8.3026 0.0858522 32.9536 -0.670019 1.00072 -15.8956 1.31619
22.7262 84.3365 -141.501 -540.659 -59.3802 538.376 2.96889 3.65009 1.42435 -1.62405 0.988288 0.216175 2.11603 24.819 2.01911 -3.34775 -56.9448 2.16206 -0.0 0.0 0.0 -0.0 0.0 0.0 -5.99877e-14 -9.9395e-15 4.88144e-13 11.1 17.535 76.4366 -17.8204 -10.4949 33.6186 -0.0291774 4.90076 0.690422 -1.93181e-09 -2.04436e-09 -3.56535e-09 -3.35683e-09 -3.54953e-09 -6.1605e-09 -1.93181e-09 -2.04436e-09 -3.56537e-09 7.73091 5.47488 0.417314 -1.93181e-09 -2.04436e-09 -3.56535e-09 2.90554 0.965183 0.102902 -1.93181e-09 -2.04436e-09 -3.56535e-09 10.2786 0.731801 0.0259123 -1.93182e-09 -2.04436e-09 -3.56534e-09 2.22167 -0.733487 -0.20892 -6.00325e-14 -9.93913e-15 4.87858e-13 -57.9556 -8.25345 -18.5844 12.5173 -5.81798 -22.6161 0.380241 -17.2696 2.50412 4.53592e-10 4.10661e-09 3.64869e-09 7.33564e-10 7.13655e-09 6.31639e-09 4.5359e-10 4.10661e-09 3.64869e-09 -7.73091 5.47488 -0.417314 4.53593e-10 4.10661e-09 3.64868e-09 -2.90554 0.965183 -0.102902 4.53588e-10 4.10661e-09 3.64868e-09 -10.2786 0.731801 -0.0259123 4.53597e-10 4.10661e-09 3.64867e-09 -2.22167 -0.733487 0.20892 -2.03217e-16 0.0 -3.88251e-19 0.843999 -17.1157 18.2303 -0.28129 35.692 0.654361 1.27578 -14.6677 5.5359 2.03217e-16 0.0 3.88251e-19 1.43569 -10.1129 8.42986 0.0820945 32.8271 -0.671031 1.07083 -16.065 1.53289
22.6762 84.3047 -141.327 -540.801 -59.1529 538.464 2.92862 3.64266 1.33803 -1.60099 0.984186 0.189934 2.16738 24.7695 2.25538 -3.18002 -56.5841 2.79247 -0.0 0.0 0.0 -0.0 0.0 0.0 -1.07525e-15 1.04123e-13 -1.14497e-13 10.5486 18.2021 76.8952 -17.9996 -10.686 34.0197 -0.0229295 4.3399 0.611089 -8.11785e-10 -9.64162e-10 -1.08972e-09 -1.41094e-09 -1.67288e-09 -1.8825e-09 -8.11783e-10 -9.6416e-10 -1.08974e-09 7.73091 5.47488 0.417314 -8.11785e-10 -9.64159e-10 -1.08972e-09 2.90554 0.965183 0.102902 -8.11779e-10 -9.64159e-10 -1.08972e-09 10.2786 0.731801 0.0259123 -8.11788e-10 -9.64159e-10 -1.0897e-09 2.22167 -0.733487 -0.20892 -1.11608e-15 1.04117e-13 -1.14829e-13 -58.0667 -8.25049 -18.4128 12.3406 -5.69056 -22.2707 0.367587 -16.9904 2.46112 3.23457e-10 9.47569e-10 8.77205e-10 5.45225e-10 1.65193e-09 1.52238e-09 3.23456e-10 9.47568e-10 8.77205e-10 -7.73091 5.47488 -0.417314 3.23457e-10 9.47567e-10 8.77198e-10 -2.90554 0.965183 -0.102902 3.23452e-10 9.47566e-10 8.77194e-10 -10.2786 0.731801 -0.0259123 3.23461e-10 9.47569e-10 8.77189e-10 -2.22167 -0.733487 0.20892 -2.03217e-16 0.0 -3.88251e-19 0.658968 -17.2305 18.2505 -0.283162 35.8161 0.657344 1.36447 -14.6424 5.79588 2.03217e-16 0.0 3.88251e-19 1.21955 -9.98844 8.55218 0.078437 32.7043 -0.672009 1.13985 -16.2296 1.74329
22.6254 84.2727 -141.153 -540.942 -58.925 538.542 2.87622 3.63238 1.23872 -1.58078 0.985293 0.160004 2.22951 24.713 2.49537 -3.01875 -56.2028 3.42663 -0.0 0.0 0.0 -0.0 0.0 0.0 3.58014e-14 1.68177e-13 -4.73704e-13 9.96602 18.8529 77.376 -18.1817 -10.8834 34.4292 -0.0178217 3.80842 0.536036 -1.3938e-10 -2.83379e-10 4.428e-10 -2.42102e-10 -4.90069e-10 7.65369e-10 -1.39379e-10 -2.83377e-10 4.42784e-10 7.73091 5.47488 0.417314 -1.39379e-10 -2.83377e-10 4.42803e-10 2.90554 0.965183 0.102902 -1.39375e-10 -2.83378e-10 4.42802e-10 10.2786 0.731801 0.0259123 -1.39384e-10 -2.83377e-10 4.42819e-10 2.22167 -0.733487 -0.20892 3.57635e-14 1.68167e-13 -4.74052e-13 -58.1584 -8.20792 -18.2198 12.175 -5.57208 -21.949 0.356431 -16.7383 2.42242 2.06373e-10 -9.26966e-10 -7.55255e-10 3.64673e-10 -1.60316e-09 -1.30191e-09 2.06373e-10 -9.26968e-10 -7.55255e-10 -7.73091 5.47488 -0.417314 2.06373e-10 -9.26967e-10 -7.55261e-10 -2.90554 0.965183 -0.102902 2.06369e-10 -9.26969e-10 -7.55264e-10 -10.2786 0.731801 -0.0259123 2.06378e-10 -9.26967e-10 -7.5527e-10 -2.22167 -0.733487 0.20892 -2.03217e-16 0.0 -3.88251e-19 0.457255 -17.3438 18.258 -0.285095 35.9427 0.660397 1.45574 -14.6283 6.0598 2.03217e-16 0.0 3.88251e-19 0.99264 -9.86437 8.67845 0.0747978 32.5823 -0.6729 1.2078 -16.3892 1.94783
22.5718 84.24 -140.974 -541.11 -58.7056 538.643 2.80664 3.61897 1.12921 -1.56507 0.990711 0.12714 2.30429 24.653 2.73723 -2.8699 -55.7973 4.05844 -0.0 0.0 0.0 -0.0 0.0 0.0 4.27793e-14 1.58647e-13 -4.85952e-13 9.34276 19.4903 77.8769 -18.3662 -11.086 34.8467 -0.0134287 3.30488 0.465002 -1.5418e-10 -1.68413e-10 6.05362e-10 -2.65969e-10 -2.90128e-10 1.04545e-09 -1.54178e-10 -1.68411e-10 6.05346e-10 7.73091 5.47488 0.417314 -1.5418e-10 -1.68412e-10 6.05366e-10 2.90554 0.965183 0.102902 -1.54175e-10 -1.68412e-10 6.05365e-10 10.2786 0.731801 0.0259123 -1.54186e-10 -1.68411e-10 6.0538e-10 2.22167 -0.733487 -0.20892 4.27425e-14 1.58638e-13 -4.86268e-13 -58.2207 -8.10697 -17.9981 12.0244 -5.4653 -21.6577 0.347233 -16.5268 2.39004 1.04728e-10 -9.52245e-10 -7.41486e-10 1.89398e-10 -1.64849e-09 -1.27945e-09 1.04726e-10 -9.52247e-10 -7.41485e-10 -7.73091 5.47488 -0.417314 1.04727e-10 -9.52246e-10 -7.4149e-10 -2.90554 0.965183 -0.102902 1.04723e-10 -9.52248e-10 -7.41493e-10 -10.2786 0.731801 -0.0259123 1.04733e-10 -9.52245e-10 -7.415e-10 -2.22167 -0.733487 0.20892 -2.03217e-16 0.0 -3.88251e-19 0.229678 -17.4531 18.246 -0.28711 36.0734 0.663588 1.5514 -14.634 6.32952 2.03217e-16 0.0 3.88251e-19 0.748785 -9.73707 8.81316 0.0711481 32.4594 -0.673646 1.2749 -16.5446 2.14771
